<?xml version="1.0" encoding="iso-8859-1"?>
<!-- Uploaded to: SVG Repo, www.svgrepo.com, Generator: SVG Repo Mixer Tools -->
<svg fill="#fff" height="800px" width="800px" version="1.1" id="Layer_1"
	xmlns="http://www.w3.org/2000/svg"
	xmlns:xlink="http://www.w3.org/1999/xlink" viewBox="0 0 512.097 512.097" xml:space="preserve">
	<g transform="translate(-1 -1)">
		<g>
			<path d="M513.054,309.99c-0.001-0.038-0.001-0.068-0.002-0.105c0.038-0.698,0.011-1.422-0.073-2.171
			c-0.009-0.088-0.01-0.172-0.02-0.26c-0.007-0.055-0.017-0.107-0.023-0.162c-0.003-0.023-0.004-0.044-0.007-0.067
			c-0.003-0.019-0.008-0.037-0.011-0.056c-2.383-18.636-18.732-29.437-45.76-28.641c-2.052,0.06-4.192,0.002-6.411-0.173
			c-8.628-0.678-18.08-3.047-27.678-6.583c-4.102-1.511-7.946-3.132-11.41-4.748c-2.048-0.955-3.486-1.681-4.196-2.064
			l-36.954-14.813c-0.148-0.069-0.289-0.147-0.443-0.208l-21.947-8.779c5.29-10.79,2.374-24.164-7.582-31.67
			c-11.271-8.521-27.326-6.28-35.849,5.008l-3.411,4.516c-3.726-2.298-7.658-4.9-12.088-7.969c8.397-11.27,6.13-27.234-5.114-35.711
			c-10.537-7.966-25.253-6.524-34.089,2.92c-2.619-2.608-3.382-3.369-3.659-3.649c-0.279-0.296-0.562-0.593-0.838-0.889
			c-0.233-0.25-0.465-0.501-0.697-0.753c-0.13-0.141-0.258-0.282-0.387-0.422c-1.495-1.637-3.111-3.474-5.746-6.504
			c-0.2-0.23-0.375-0.431-0.538-0.619c-17.501-20.386-32.765-35.192-46.045-42.978c-7.875-4.935-14.619-7.085-22.203-6.072
			c-0.375,0.046-0.751,0.087-1.122,0.152c-0.117,0.022-0.232,0.046-0.349,0.068c-1.962,0.354-3.967,0.805-6.114,1.371
			c-0.461,0.122-0.896,0.249-1.403,0.404c-4.641,1.308-9.383,3.03-15.121,5.365c-0.057,0.023-1.889,0.795-4.55,1.909
			c-6.948,2.874-15.947,6.612-19.714,8.065c-3.097,1.194-6.11,2.301-9.128,3.347c-0.14,0.049-0.266,0.115-0.402,0.17
			c-25.56,8.787-51.881,13.307-86.747,13.307c-4.713,0-8.533,3.82-8.533,8.533v81.609c-3.334,3.312-7.333,8.011-11.307,14.006
			c-17.88,26.965-20.669,58.676,0.763,92.07c-8.731,14.126-8.413,27.203-0.623,37.723c6.426,8.698,17.039,13.525,28.277,13.525
			h337.485c39.348,0,78.196-8.821,113.672-25.814l4.223-2.022c8.519-4.044,11.519-15.146,13.083-33.775
			C513.012,327.42,513.191,318.089,513.054,309.99z M414.443,282.491c3.875,1.808,8.153,3.612,12.725,5.296
			c10.95,4.035,21.852,6.767,32.242,7.583c2.815,0.221,5.566,0.297,8.25,0.218c17.473-0.515,25.803,3.998,27.921,11.669
			c-0.262,0.19-0.566,0.397-0.91,0.618c-4.731,3.037-13.659,6.573-26.573,10.737c-1.202,0.387-9.769,3.012-17.635,5.477
			c-5.876,1.841-11.36,3.594-13.087,4.259c-1.659,0.641-3.238,1.438-4.736,2.365c-0.191,0.118-0.385,0.23-0.573,0.353
			c-0.04,0.026-0.079,0.055-0.119,0.082c-1.613,1.063-3.122,2.287-4.507,3.666c-0.826,0.826-1.758,1.515-2.764,2.054
			c-0.011,0.006-0.023,0.012-0.035,0.018c-0.311,0.165-0.629,0.315-0.952,0.451c-0.033,0.014-0.066,0.029-0.099,0.042
			c-0.663,0.272-1.35,0.481-2.053,0.628c-0.087,0.018-0.174,0.032-0.261,0.048c-0.256,0.047-0.515,0.086-0.775,0.116
			c-0.105,0.012-0.21,0.026-0.316,0.035c-0.321,0.029-0.643,0.046-0.967,0.048c-0.022,0-0.045,0.002-0.067,0.002H175.067
			c1.359-2.381,2.546-4.874,3.507-7.52c1.605-4.405,9.318-15.629,20.292-29.854c0.024-0.031,0.052-0.057,0.076-0.088
			c0.939-1.221,1.903-2.462,2.882-3.716c0.19-0.243,0.381-0.486,0.573-0.731c0.54-0.689,1.093-1.389,1.643-2.086
			c6.211-7.857,13.191-16.371,20.544-25.009c0.349-0.41,0.698-0.82,1.049-1.231c2.439-2.855,4.915-5.72,7.416-8.577l41.508,39.459
			l0.687,0.587c28.238,21.654,68.708,16.158,90.151-12.236l14.383-19.048l30.048,12.019
			C410.849,280.765,412.412,281.543,414.443,282.491z M92.342,304.125h82.865c-6.612,9.282-11.155,16.618-12.67,20.777
			c-1.858,5.115-4.885,9.477-9.139,13.355H81.482C84.298,326.609,87.927,315.205,92.342,304.125z M157.578,141.475
			c3.742-1.548,6.86-2.834,8.225-3.369c0.156-0.061,0.307-0.118,0.462-0.177c2.438-0.919,3.829-1.425,5.13-1.86
			c0.496-0.171,0.868-0.285,1.805-0.563c0.402-0.119,0.402-0.119,0.838-0.25c0.589-0.18,0.589-0.18,1.124-0.349
			c0.882-0.276,1.208-0.373,1.489-0.448c0.414-0.109,0.818-0.211,1.217-0.309c0.074-0.018,0.148-0.036,0.222-0.054
			c0.592-0.144,1.164-0.272,1.725-0.392c0.277-0.058,0.554-0.118,0.829-0.172c0.159-0.031,0.316-0.06,0.473-0.089
			c4.419-0.717,11.189,2.487,19.565,8.898c0.831,0.639,1.662,1.291,2.493,1.96c0.426,0.345,0.858,0.703,1.292,1.063
			c0.218,0.18,0.436,0.364,0.654,0.546c6.371,5.36,13.501,12.306,21.117,20.576c2.273,2.489,4.669,5.175,7.264,8.137
			c0.498,0.569,0.896,1.026,1.668,1.912c0.358,0.417,0.714,0.827,1.074,1.249c1.426,1.673,2.908,3.341,4.419,5.008
			c0.604,0.674,1.164,1.29,1.722,1.895c0.105,0.113,0.21,0.227,0.315,0.34c0.317,0.342,0.636,0.684,0.966,1.033
			c0.108,0.115,0.264,0.277,0.484,0.499c1.633,1.729,3.305,3.463,5.046,5.211c-1.191,2.023-2.254,3.503-3.388,5.016l-0.71,0.94
			c-0.425,0.542-0.596,0.772-1.116,1.475c-0.889,1.175-0.889,1.175-1.184,1.567c-0.109,0.144-0.207,0.294-0.312,0.44
			c-0.167,0.231-0.335,0.46-0.494,0.695c-0.063,0.093-0.12,0.188-0.181,0.282c-0.207,0.316-0.409,0.634-0.6,0.956
			c-0.022,0.038-0.043,0.076-0.065,0.114c-3.873,6.585-4.49,14.363-2.131,21.251c1.595,4.666,4.553,8.922,8.783,12.119
			c0.492,0.371,0.996,0.714,1.505,1.045c0.083,0.054,0.167,0.108,0.251,0.161c0.105,0.066,0.208,0.136,0.313,0.201
			c0.966,0.593,1.961,1.11,2.975,1.562c0.008,0.003,0.015,0.007,0.023,0.01c8.438,3.747,18.277,2.615,25.632-2.857
			c1.91-1.419,3.656-3.125,5.164-5.119l5.059-6.705c1.627,1,3.172,1.976,4.66,2.927c2.548,1.704,5.06,3.33,7.547,4.868l-1.666,2.208
			c-1.065,1.41-1.962,2.896-2.694,4.431c-4.882,10.23-2.435,22.704,6.336,30.312c0.041,0.036,0.081,0.072,0.123,0.108
			c0.395,0.339,0.799,0.67,1.22,0.988c0.006,0.005,0.012,0.01,0.018,0.014c0.001,0.001,0.002,0.001,0.003,0.002
			c0,0,0.001,0.001,0.001,0.001c0.485,0.366,0.981,0.706,1.483,1.033c0.093,0.06,0.186,0.12,0.279,0.18
			c1.066,0.675,2.165,1.262,3.29,1.762c0.003,0.001,0.005,0.003,0.008,0.004c7.899,3.508,17.03,2.745,24.2-1.859
			c0.017-0.011,0.035-0.021,0.052-0.032c0.1-0.064,0.196-0.135,0.295-0.201c2.338-1.555,4.46-3.519,6.247-5.886l2.59-3.432
			c0.025-0.034,0.048-0.064,0.083-0.11c0.828-1.094,1.638-2.168,2.178-2.884l2.34-3.097l0.599-0.794l15.443,6.177l-11.578,15.333
			c-15.646,20.717-45.098,24.82-65.8,9.24l-81.105-77.102l-39.537-37.589c-0.009-0.008-0.018-0.015-0.027-0.023l-24.35-23.148
			C145.753,146.414,152.919,143.426,157.578,141.475z M193.007,221.381l27.659,26.296c-1.535,1.749-3.058,3.5-4.57,5.249h-97.017
			c14.633-24.444,28.691-45.944,41.306-62.557L193.007,221.381z M187.986,287.058h-87.952c2.577-5.428,5.185-10.438,7.926-15.197
			c0.06-0.104,0.12-0.209,0.18-0.312c0.295-0.512,0.589-1.015,0.884-1.525c0.007-0.012,0.012-0.021,0.019-0.033h92.638
			C196.818,275.89,192.217,281.626,187.986,287.058z M340.253,223.111c3.768,2.841,4.515,8.193,1.675,11.949l-3.657,4.843
			c-0.02,0.025-0.041,0.048-0.06,0.074l-1.434,1.902l-4.439,5.88l-5.84,7.733c-0.161,0.213-0.332,0.414-0.509,0.608
			c-0.171,0.182-0.359,0.366-0.565,0.55c-0.276,0.25-0.636,0.511-1.427,1.027c-1.033,0.638-2.198,1.019-3.396,1.149
			c-0.069,0.007-0.138,0.013-0.207,0.019c-0.373,0.031-0.749,0.045-1.125,0.027c0,0,0,0,0,0c-0.378-0.018-0.755-0.069-1.13-0.138
			c-0.074-0.014-0.148-0.029-0.223-0.045c-0.729-0.154-1.443-0.408-2.124-0.757c-0.096-0.05-0.192-0.101-0.287-0.155
			c-0.29-0.163-0.574-0.343-0.848-0.543c-0.035-0.026-0.073-0.047-0.108-0.074c-0.044-0.033-0.083-0.071-0.126-0.105
			c-1.051-0.832-1.889-1.948-2.577-3.51c-0.139-0.334-0.297-0.835-0.423-1.395c-0.342-1.545-0.235-3.173,0.347-4.778
			c0.348-0.928,0.712-1.635,1.104-2.153l2.403-3.184l13.028-17.25C331.15,221.018,336.497,220.272,340.253,223.111z
			 M283.791,188.955c3.768,2.841,4.515,8.193,1.675,11.949l-5.233,6.929c-0.004,0.006-0.009,0.011-0.014,0.016l-1.571,2.082
			l-2.549,3.375c-0.303,0.4-0.627,0.829-0.996,1.317c-1.913,2.53-1.913,2.53-3.507,4.638c-1.012,1.333-1.259,1.658-1.274,1.695
			l-0.224,0.296c-0.058,0.072-0.126,0.158-0.179,0.222c-0.01,0.013-0.021,0.025-0.032,0.038c-0.387,0.466-0.637,0.723-0.894,0.95
			c-0.354,0.32-0.737,0.599-1.413,1.031c-1.075,0.662-2.279,1.058-3.512,1.183c-0.011,0.001-0.022,0.002-0.033,0.003
			c-0.799,0.078-1.61,0.04-2.406-0.11c-0.043-0.008-0.085-0.017-0.127-0.026c-0.766-0.157-1.515-0.422-2.226-0.793
			c-0.061-0.032-0.121-0.064-0.181-0.098c-0.347-0.192-0.687-0.404-1.011-0.648c-1.052-0.795-1.888-1.88-2.646-3.508
			c-0.142-0.328-0.303-0.797-0.426-1.293c-0.464-1.897-0.305-3.825,0.451-5.53c0-0.001,0.001-0.002,0.001-0.003
			c0.1-0.226,0.219-0.444,0.34-0.661c0.039-0.068,0.071-0.139,0.111-0.206c0.08-0.134,0.173-0.261,0.261-0.391
			c0.082-0.121,0.157-0.245,0.246-0.363l1.346-1.782c0.348-0.453,0.545-0.71,0.607-0.804l0.395-0.523l0.006-0.007
			c0.846-1.12,1.635-2.165,2.486-3.292l6.303-8.345c0.009-0.012,0.017-0.026,0.026-0.038l4.252-5.63
			C274.687,186.862,280.035,186.116,283.791,188.955z M29.604,264.104c2.508-3.783,5.196-7.127,7.869-9.982
			c1.556-1.662,2.712-2.752,3.268-3.223c1.911-1.621,3.013-4.001,3.013-6.507v-76.89c30.78-0.659,55.518-4.952,79.269-12.651
			l24.919,23.69c-16.443,21.425-35.02,50.583-54.196,83.803c-0.125,0.216-0.248,0.428-0.369,0.639
			c-0.07,0.121-0.139,0.24-0.209,0.361c-0.084,0.146-0.164,0.294-0.248,0.441c-0.578,1.009-1.151,2.025-1.717,3.053
			c-12.428,22.344-21.585,46.382-27.237,71.42H30.962C12.965,310.727,15.103,285.973,29.604,264.104z M495.253,334.952
			c-0.531,6.328-1.332,11.662-2.391,15.582c-0.518,1.915-1.071,3.385-1.588,4.315c-0.087,0.156-0.103,0.204-0.013,0.173
			l-3.678,1.761c-33.176,15.891-69.505,24.14-106.301,24.14H43.797c-6.056,0-11.505-2.478-14.555-6.607
			c-3.593-4.852-3.782-10.63,1.63-18.992h39.966c0.01,0,0.02,0.002,0.03,0.002h85.666c0.013,0,0.027-0.002,0.04-0.002h262.579
			c0.639,0,1.275-0.029,1.908-0.071c0.148-0.01,0.296-0.021,0.445-0.033c0.618-0.051,1.234-0.115,1.845-0.205
			c0.014-0.002,0.029-0.003,0.043-0.005c0.61-0.091,1.215-0.208,1.816-0.338c0.173-0.037,0.345-0.076,0.517-0.117
			c0.531-0.125,1.059-0.262,1.581-0.416c0.112-0.033,0.224-0.066,0.336-0.1c0.523-0.162,1.039-0.341,1.552-0.533
			c0.203-0.076,0.404-0.154,0.605-0.234c0.441-0.176,0.877-0.362,1.308-0.559c0.208-0.095,0.415-0.192,0.622-0.293
			c0.424-0.206,0.843-0.423,1.256-0.65c0.215-0.118,0.428-0.239,0.64-0.362c0.378-0.22,0.75-0.45,1.118-0.687
			c0.122-0.079,0.25-0.147,0.37-0.228c1.572-1.048,3.04-2.251,4.381-3.592c0.719-0.719,1.515-1.316,2.367-1.815
			c0.531-0.31,1.078-0.592,1.655-0.815c1.469-0.566,6.81-2.262,12.592-4.069c0.028-0.009,0.056-0.018,0.084-0.026
			c0.021-0.007,0.042-0.013,0.063-0.02c7.469-2.332,15.622-4.831,17.091-5.305c9.254-2.981,16.639-5.662,22.431-8.287
			C495.658,329.376,495.485,332.193,495.253,334.952z"/>
		</g>
	</g>
</svg>